<svg xmlns="http://www.w3.org/2000/svg" width="2170" height="691.523" viewBox="0 0 2170 691.523"><g transform="translate(250.499 -0.5)"><path d="M.5,673.523h0V0h2170V358.98c-4.811,1.725-31.051,10.992-75.371,24.121-25.665,7.6-52.67,15.1-80.265,22.271-34.047,8.853-69.2,17.275-104.495,25.03-88.912,19.539-179.489,35.081-269.215,46.193-53,6.564-106.322,11.641-158.486,15.091-27.986,1.851-56.2,3.269-83.849,4.216-28.883.989-57.952,1.49-86.4,1.49-43.935,0-87.908-1.194-130.7-3.549-45.209-2.488-90.334-6.34-134.123-11.449-22.749-2.654-45.615-5.7-67.962-9.062-22.9-3.442-45.894-7.307-68.356-11.488-22.994-4.28-46.074-9.012-68.6-14.064-23.043-5.169-46.152-10.818-68.684-16.79-29.987-7.949-59.665-14.957-88.211-20.831-27.677-5.695-55.042-10.477-81.335-14.215-25.458-3.619-50.6-6.356-74.732-8.136-23.328-1.72-46.342-2.593-68.4-2.593-23.41,0-46.412.982-68.366,2.92-21.053,1.858-41.7,4.644-61.382,8.28-18.818,3.478-37.243,7.826-54.764,12.924a494.254,494.254,0,0,0-48.511,16.85,445.418,445.418,0,0,0-42.626,20.059,412.424,412.424,0,0,0-37.106,22.55,391.763,391.763,0,0,0-31.953,24.324c-9.46,8.009-18.6,16.548-27.166,25.381a372.6,372.6,0,0,0-41.436,51.064,364.073,364.073,0,0,0-26.683,46.684A327.976,327.976,0,0,0,6.466,652.814C3.127,662.771,1.3,670.057.5,673.514Z" transform="translate(-251 18.5)" fill="#c8e0dd"/><path d="M.5,673.523h0V0h2170V358.98c-4.811,1.725-31.051,10.992-75.371,24.121-25.665,7.6-52.67,15.1-80.265,22.271-34.047,8.853-69.2,17.275-104.495,25.03-88.912,19.539-179.489,35.081-269.215,46.193-53,6.564-106.322,11.641-158.486,15.091-27.986,1.851-56.2,3.269-83.849,4.216-28.883.989-57.952,1.49-86.4,1.49-43.935,0-87.908-1.194-130.7-3.549-45.209-2.488-90.334-6.34-134.123-11.449-22.749-2.654-45.615-5.7-67.962-9.062-22.9-3.442-45.894-7.307-68.356-11.488-22.994-4.28-46.074-9.012-68.6-14.064-23.043-5.169-46.152-10.818-68.684-16.79-29.987-7.949-59.665-14.957-88.211-20.831-27.677-5.695-55.042-10.477-81.335-14.215-25.458-3.619-50.6-6.356-74.732-8.136-23.328-1.72-46.342-2.593-68.4-2.593-23.41,0-46.412.982-68.366,2.92-21.053,1.858-41.7,4.644-61.382,8.28-18.818,3.478-37.243,7.826-54.764,12.924a494.254,494.254,0,0,0-48.511,16.85,445.418,445.418,0,0,0-42.626,20.059,412.424,412.424,0,0,0-37.106,22.55,391.763,391.763,0,0,0-31.953,24.324c-9.46,8.009-18.6,16.548-27.166,25.381a372.6,372.6,0,0,0-41.436,51.064,364.073,364.073,0,0,0-26.683,46.684A327.976,327.976,0,0,0,6.466,652.814C3.127,662.771,1.3,670.057.5,673.514Z" transform="translate(-251 0.5)" fill="#057b85"/></g></svg>