<svg id="Layer_1" data-name="Layer 1" xmlns="http://www.w3.org/2000/svg" xmlns:xlink="http://www.w3.org/1999/xlink" viewBox="0 0 960 88.5"><defs><style>.cls-1{fill:none;}.cls-2{clip-path:url(#clip-path);}.cls-3{fill:#c8e0dd;}.cls-4{fill:#057b85;}</style><clipPath id="clip-path"><rect class="cls-1" width="960" height="88.5"/></clipPath></defs><title>header-blob1</title><g class="cls-2"><g id="a"><path class="cls-3" d="M-124.75,173h0V-163.75H.75v168h959.5V15.74c-2.4.86-15.52,5.5-37.68,12.06-12.84,3.8-26.35,7.55-40.14,11.14-17,4.42-34.6,8.63-52.25,12.51-44.45,9.77-89.74,17.54-134.6,23.1-26.5,3.28-53.17,5.82-79.25,7.54-14,.93-28.1,1.64-41.92,2.11-14.44.49-29,.75-43.2.75-22,0-44-.6-65.35-1.78-22.6-1.24-45.17-3.17-67.06-5.72-11.38-1.33-22.81-2.85-34-4.53-11.45-1.72-22.94-3.65-34.18-5.75-11.5-2.14-23-4.5-34.3-7-11.54-2.59-23.09-5.41-34.34-8.4-15-4-29.84-7.48-44.11-10.41-13.84-2.85-27.52-5.24-40.67-7.11-12.73-1.81-25.3-3.18-37.36-4.07-11.66-.86-23.17-1.29-34.2-1.29-11.71,0-23.21.49-34.19,1.46-10.52.93-20.85,2.32-30.69,4.14-9.41,1.74-18.62,3.91-27.38,6.46a247.34,247.34,0,0,0-24.25,8.42,225,225,0,0,0-21.32,10A206,206,0,0,0-50.72,70.65a198.37,198.37,0,0,0-16,12.16c-4.73,4-9.3,8.27-13.58,12.69A186,186,0,0,0-101,121a182.62,182.62,0,0,0-13.34,23.34,164.75,164.75,0,0,0-7.43,18.29c-1.67,5-2.58,8.62-3,10.35Z"/><path class="cls-4" d="M-124.75,164h0V-172.75H.5V0H960.25V6.74c-2.4.86-15.52,5.5-37.68,12.06-12.84,3.8-26.35,7.55-40.14,11.14-17,4.42-34.6,8.63-52.25,12.51-44.45,9.77-89.74,17.54-134.6,23.1-26.5,3.28-53.17,5.82-79.25,7.54-14,.93-28.1,1.64-41.92,2.11-14.44.5-29,.75-43.2.75-22,0-44-.6-65.35-1.78-22.6-1.24-45.17-3.17-67.06-5.72-11.38-1.33-22.81-2.85-34-4.53-11.45-1.72-22.94-3.65-34.18-5.75-11.5-2.14-23-4.5-34.3-7-11.54-2.59-23.09-5.41-34.34-8.4-15-4-29.84-7.48-44.11-10.41-13.84-2.85-27.52-5.24-40.67-7.11-12.73-1.81-25.3-3.18-37.36-4.07-11.66-.86-23.17-1.29-34.2-1.29-11.71,0-23.21.49-34.19,1.46-10.52.93-20.85,2.32-30.69,4.14-9.41,1.74-18.62,3.91-27.38,6.46a247.34,247.34,0,0,0-24.25,8.42,225,225,0,0,0-21.32,10A206,206,0,0,0-50.72,61.65a198.37,198.37,0,0,0-16,12.16c-4.73,4-9.3,8.27-13.58,12.69A186,186,0,0,0-101,112a182.62,182.62,0,0,0-13.34,23.34,164.75,164.75,0,0,0-7.43,18.29c-1.67,5-2.58,8.62-3,10.35Z"/></g></g></svg>