<svg xmlns="http://www.w3.org/2000/svg" xmlns:xlink="http://www.w3.org/1999/xlink" width="1920" height="177" viewBox="0 0 1920 177"><defs><style>.a{clip-path:url(#b);}.b{fill:#c8e0dd;}.c{fill:#057b85;}</style><clipPath id="b"><rect width="1920" height="177"/></clipPath></defs><g id="a" class="a"><g transform="translate(1 -346)"><path class="b" d="M-3260,692.023h0V18.5h251v336h1919v22.98c-4.81,1.725-31.046,10.99-75.371,24.121-25.678,7.606-52.683,15.1-80.265,22.271-34.05,8.854-69.208,17.276-104.5,25.03-88.914,19.539-179.492,35.081-269.215,46.193-53,6.564-106.326,11.642-158.485,15.091-27.988,1.85-56.2,3.269-83.849,4.216-28.886.988-57.956,1.489-86.4,1.489-43.945,0-87.917-1.194-130.7-3.549-45.2-2.487-90.329-6.339-134.124-11.449-22.743-2.653-45.609-5.7-67.961-9.062-22.882-3.439-45.88-7.3-68.356-11.488-22.989-4.279-46.068-9.012-68.6-14.064-23.066-5.175-46.175-10.824-68.684-16.791-29.991-7.95-59.669-14.958-88.21-20.831-27.679-5.695-55.044-10.477-81.335-14.215-25.463-3.619-50.606-6.357-74.732-8.136-23.324-1.721-46.339-2.593-68.4-2.593-23.413,0-46.415.982-68.366,2.92-21.054,1.858-41.706,4.643-61.382,8.28-18.818,3.478-37.243,7.826-54.764,12.923a494.491,494.491,0,0,0-48.512,16.85,445.524,445.524,0,0,0-42.626,20.058,412.5,412.5,0,0,0-37.106,22.551,391.727,391.727,0,0,0-31.954,24.324c-9.459,8.008-18.6,16.548-27.166,25.381a372.7,372.7,0,0,0-41.436,51.064,364.024,364.024,0,0,0-26.682,46.684,328.2,328.2,0,0,0-14.859,36.565c-3.34,9.958-5.17,17.244-5.964,20.7v.008Z" transform="translate(3009.501)"/><path class="c" d="M-3260,674.023h0V.5h250.5V346H-1090v13.48c-4.81,1.725-31.046,10.99-75.371,24.121-25.678,7.606-52.683,15.1-80.265,22.271-34.05,8.854-69.208,17.276-104.5,25.03-88.914,19.539-179.492,35.081-269.215,46.193-53,6.564-106.326,11.642-158.485,15.091-27.988,1.851-56.2,3.269-83.849,4.216-28.886.988-57.956,1.489-86.4,1.489-43.945,0-87.917-1.194-130.7-3.549-45.2-2.487-90.329-6.339-134.124-11.449-22.743-2.653-45.609-5.7-67.961-9.062-22.882-3.439-45.88-7.3-68.356-11.488-22.989-4.279-46.068-9.012-68.6-14.064-23.066-5.175-46.175-10.824-68.684-16.791-29.991-7.95-59.669-14.958-88.21-20.831-27.679-5.695-55.044-10.477-81.335-14.215-25.463-3.619-50.606-6.357-74.732-8.136-23.324-1.721-46.339-2.593-68.4-2.593-23.413,0-46.415.982-68.366,2.92-21.054,1.858-41.706,4.643-61.382,8.28-18.818,3.478-37.243,7.826-54.764,12.923a494.491,494.491,0,0,0-48.512,16.85,445.524,445.524,0,0,0-42.626,20.058,412.5,412.5,0,0,0-37.106,22.551,391.727,391.727,0,0,0-31.954,24.324c-9.459,8.008-18.6,16.548-27.166,25.381a372.7,372.7,0,0,0-41.436,51.064,364.024,364.024,0,0,0-26.682,46.684,328.2,328.2,0,0,0-14.859,36.565c-3.34,9.958-5.17,17.244-5.964,20.7v.008Z" transform="translate(3009.501)"/></g></g></svg>