<svg xmlns="http://www.w3.org/2000/svg" xmlns:xlink="http://www.w3.org/1999/xlink" viewBox="0 0 960 88.5"><defs><style>.a{fill:none;}.b{clip-path:url(#a);}.c{fill:#c8e0dd;}.d{fill:#057b85;}</style><clipPath id="a"><rect class="a" x="-0.13" width="960.38" height="88.5"/></clipPath></defs><title>header-blob2</title><g class="b"><path class="c" d="M-124.93,173h0V-163.75H.62v168H960.51V15.74c-2.41.86-15.53,5.5-37.7,12.06-12.85,3.8-26.36,7.55-40.15,11.14-17,4.42-34.62,8.63-52.27,12.51C785.91,61.22,740.6,69,695.72,74.55c-26.51,3.28-53.18,5.82-79.27,7.54-14,.93-28.11,1.64-41.94,2.11-14.45.49-29,.75-43.22.75-22,0-44-.6-65.37-1.78-22.61-1.24-45.19-3.17-67.09-5.72-11.38-1.33-22.82-2.85-34-4.53-11.44-1.72-22.95-3.65-34.19-5.75-11.5-2.14-23-4.5-34.31-7-11.54-2.59-23.1-5.41-34.36-8.4-15-4-29.84-7.48-44.12-10.41-13.85-2.85-27.53-5.24-40.68-7.11-12.74-1.81-25.32-3.18-37.38-4.07-11.67-.86-23.18-1.29-34.22-1.29-11.71,0-23.22.49-34.19,1.46-10.54.93-20.87,2.32-30.71,4.14C31.26,36.2,22,38.37,13.28,40.92A247.71,247.71,0,0,0-11,49.34a226.21,226.21,0,0,0-21.32,10A207.58,207.58,0,0,0-50.87,70.65a196.61,196.61,0,0,0-16,12.16c-4.73,4-9.31,8.27-13.59,12.69A186.81,186.81,0,0,0-101.17,121a181.43,181.43,0,0,0-13.34,23.34,162.9,162.9,0,0,0-7.44,18.29c-1.67,5-2.58,8.62-3,10.35Z"/><path class="d" d="M-124.93,164h0V-172.75H.37V0H960.51V6.74c-2.41.86-15.53,5.5-37.7,12.06-12.85,3.8-26.36,7.55-40.15,11.14-17,4.42-34.62,8.63-52.27,12.51C785.91,52.22,740.6,60,695.72,65.55c-26.51,3.28-53.18,5.82-79.27,7.54-14,.93-28.11,1.64-41.94,2.11-14.45.5-29,.75-43.22.75-22,0-44-.6-65.37-1.78-22.61-1.24-45.19-3.17-67.09-5.72-11.38-1.33-22.82-2.85-34-4.53-11.44-1.72-22.95-3.65-34.19-5.75-11.5-2.14-23-4.5-34.31-7-11.54-2.59-23.1-5.41-34.36-8.4-15-4-29.84-7.48-44.12-10.41-13.85-2.85-27.53-5.24-40.68-7.11-12.74-1.81-25.32-3.18-37.38-4.07-11.67-.86-23.18-1.29-34.22-1.29-11.71,0-23.22.49-34.19,1.46-10.54.93-20.87,2.32-30.71,4.14C31.26,27.2,22,29.37,13.28,31.92A247.71,247.71,0,0,0-11,40.34a226.21,226.21,0,0,0-21.32,10A207.58,207.58,0,0,0-50.87,61.65a196.61,196.61,0,0,0-16,12.16c-4.73,4-9.31,8.27-13.59,12.69A186.81,186.81,0,0,0-101.17,112a181.43,181.43,0,0,0-13.34,23.34,162.9,162.9,0,0,0-7.44,18.29c-1.67,5-2.58,8.62-3,10.35Z"/></g></svg>